<?xml version="1.0" encoding="UTF-8"?>
<svg id="Lager_1" data-name="Lager 1" xmlns="http://www.w3.org/2000/svg" viewBox="0 0 276.23 465.67">
  <defs>
    <style>
      .cls-1 {
        fill: #fff;
      }

      .cls-2 {
        fill: none;
      }
    </style>
  </defs>
  <rect class="cls-2" x="13.45" y="44.46" width="262.77" height="341"/>
  <path class="cls-1" d="M.32,377.71c-.08,0-.32-.15-.32-.37s.24-.37.32-.37c.08.07.16.22.16.51,0,.07,0,.15-.08.22h-.08ZM.16,372.29c-.08-.15-.08-.29-.08-.37l.08-.73.08.07c0,.07.08.22.08,1.03,0,.07,0,.15-.08.15l-.08-.15ZM.16,372.95q-.08,0-.08-.07c0-.15.08-.22.16-.22l.16.07c0,.07,0,.15-.08.22h-.16ZM.08,379.25v-.51c0-.29.08-.44.16-.51.24.07.24.15.24.51,0,.44-.08.66-.16.66l-.24-.15ZM.08,380.35c0-.15.08-.22.16-.22.24,0,.32.07.4.15,0,.07-.08.15-.32.15-.08,0-.16,0-.24-.07ZM.81,369.87h-.32c0-.15,0-.22.08-.22l.24.22ZM.64,382.47c-.08,0-.16-.15-.16-.37s.08-.37.24-.37l.16.44c0,.07-.08.29-.16.29h-.08ZM.73,367.6h-.16c0-.29,0-.51.08-.66.08,0,.24.07.24.29l-.16.37ZM.97,366.06c0-.22.16-.37.24-.37l.08.37c0,.22-.08.29-.16.29s-.16-.07-.16-.29ZM.97,384.16v-.15c0-.15.08-.29.16-.37l.08.59c0,.07,0,.15-.08.15s-.16-.15-.16-.22ZM38.51,407.89c-.4-.37-1.13-.59-2.09-.59-.48,0-.81.07-.89.15-1.53.07-3.22.15-5.24.15-3.71,0-7.41-.88-11.12-2.71l-1.93-.95-4.03-1.68c-4.43-2.64-7.65-6.59-9.51-11.79l-.4-1.32c-.24-1.1-.64-2.05-1.13-2.86-.08-.07-.08-.22-.16-.44h-.16c-.24,0-.4-.22-.4-.59l.08-.51c0-4.91.08-8.94.24-11.94l.4-4.17c.4-1.68.56-2.78.56-3.15l-.08-.88c0-2.34.32-4.47.97-6.3l.56-1.76c1.53-5.93,3.63-11.79,6.2-17.43,5.96-12.82,12-24.02,18.13-33.54,6.69-9.89,12.17-17.36,16.44-22.41,1.61-1.83,3.46-3.88,4.51-6.59.48-1.39,1.13-2.2,2.01-2.49l-.24-.22c0-.29.16-.51.48-.66l1.77-1.76c.56-.81,1.29-1.46,2.01-1.98,1.29-.81,2.17-1.39,2.66-1.76,1.77-1.54,4.83-4.69,9.27-9.45.48-.51,1.05-1.03,1.61-1.54.89-.81,1.77-1.61,2.5-2.49l3.54-4.91q.08,0,.08-.07l.72-.95c1.05-1.46,1.77-2.2,2.34-2.2.24,0,.4.07.4.29,0,.15-.32.44-.89.88-.4.29-.64.51-.64.59,0,.15.08.22.32.22s.72-.29,1.45-.95c.64-.59.97-.95.97-1.03l1.21-1.17c2.26-2.34,5.08-4.83,8.38-7.47.73-.59,1.61-1.1,2.5-1.54,1.45-.81,2.5-1.54,3.22-2.2,1.37-1.1,2.9-2.12,4.43-3.08.97-.59,1.93-1.17,2.82-1.83,4.59-3,9.59-5.64,14.9-7.98,6.45-3,12.33-5.2,17.72-6.59,2.34-.51,3.79-.95,4.43-1.32,1.05-.51,1.85-.73,2.42-.73.24,0,.48.07.72.29-.32-.29-.72-.44-1.13-.51-.97,0-1.29.22-3.3.22-2.58,0-4.75-.66-8.22-.66-.56.07-.81.29-1.77.29-.4-.07-.73-.15-1.05-.29-.72-.37-2.98-.59-6.61-.66-4.27-.07-9.67-.66-16.19-1.61-5.8-.73-10.31-1.54-13.54-2.42-2.98-.73-4.83-1.1-5.72-1.1s-1.61-.15-2.17-.51c-.56-.29-1.21-.51-1.93-.66-.73-.29-.81-.29-1.21-.29-.32,0-.48.22-.56.22-.4-.37.32-.07-1.29-.81-1.37-.44-2.74-1.03-3.95-1.76l-4.19-1.83c-5.16-2.42-9.59-5.71-13.29-9.74-5.16-5.64-8.54-11.5-10.07-17.65-.24-.81-.4-1.68-.48-2.49-.24-1.46-.56-3-.97-4.69-.72-2.27-1.13-4.54-1.29-6.88.24-7.69,1.45-14.14,3.54-19.41,3.95-8.72,10.39-17.14,19.42-25.12,1.29-.95,2.42-1.9,3.3-3,.08-.07.24-.22.32-.44.73-1.1,1.45-1.61,2.18-1.61-.08,0-.08-.07-.08-.22s.16-.51.48-1.03c.24-.29.48-.44.73-.44s.56.29.81.29c.4,0,.72-.22.97-.66l.81-1.46c.24-.37.97-1.03,2.09-2.05l5.4-5.2c.08,0,.08.07.08.15,0,.22-.08.22-.16.44.56,0,1.05-.29,1.45-.81l.48-.59c-.08-.07-.16-.07-.32-.07h-.24c-.24-.07-.32-.22-.32-.29l.64-.37.89-.15c1.37-.22,2.74-1.17,4.11-2.78,1.05-1.17,3.06-2.86,5.96-5.05,8.54-6.52,14.99-11.28,19.42-14.28l2.34-1.54c1.61-1.1,2.42-1.76,2.42-1.83l.08.15c0,.07-.32.44-.89.95-.72.66-1.13,1.17-1.13,1.39v.07c.08.22.32.37.64.37.81-.29,1.37-.81,1.61-1.46,0-.37.16-.66.48-.73.56,0,.64.15.97.15.24-.07.56-.44.81-1.03.16-.81.56-1.17,1.29-1.17.64,0,1.05-.22,1.21-.73.4-1.17,1.21-1.83,2.58-2.05.81-.22,1.29-.51,1.53-.73.48-.95,1.05-1.61,1.77-2.05.08-.07.4-.44,1.13-.95,1.21-1.17,2.18-1.83,2.98-2.05s1.21-.44,1.21-.81l-.48-1.03c.24-.37,1.21-.88,2.09-1.54.73-.66,1.29-1.03,1.53-1.03.08,0,.08.07.08.15,0,.29-.81,1.03-.81,1.32s.16.44.48.44c.4,0,.73-.66.97-.95.32-.88,1.05-1.03,1.69-1.25,1.13-.37,1.93-.88,2.42-1.68.97-1.25,2.17-2.05,3.54-2.42l.24-.07c.73-.22,1.13-.37,1.13-.51,0-.07-.08-.22-.16-.37l-.24-.15c.08-.07.24-.15.32-.15l.56.22c.16-.07.24-.15.32-.22.08-.66.56-1.17,1.37-1.46.72-.22,1.29-.66,1.61-1.32.24-.59.81-1.03,1.53-1.39.73-.29,1.05-.66,1.05-1.1,0-.07,0-.15-.08-.15l-.56.15c-.81.51-1.29.81-1.45.81l-.08-.15c.16-.29,1.21-1.03,1.29-1.1.24-.29.48-.44.73-.44.08,0,.4.37.72.37l-.16-.73c0-.07.08-.22.24-.29.56-.51,1.13-.81,1.61-.81s.72.22.72.73c0,.15.16.22.4.22.16,0,.24-.15.32-.37v-.44c.16-1.1.81-1.98,1.85-2.64.64-.37,1.29-.81,1.85-1.25.81-.66,1.69-1.17,2.58-1.68-.08-.07-.16-.22-.16-.29,0-.44.89-1.17,2.58-2.27,2.58-1.54,5-3.08,7.17-4.61,2.98-2.12,6.77-4.54,11.28-7.1,1.21-.66,3.22-1.83,6.2-3.52l.89-.51c1.29-.66,2.42-1.39,3.38-2.34.08.07.16.15.32.15.4,0,1.21-.37,2.34-1.03.89-.51,1.37-.88,1.61-1.1,3.87-2.34,7.9-4.54,11.52-6.67,6.69-4.1,11.92-6.81,15.71-8.06,2.01-.51,3.95-.81,5.88-.81,4.19,0,8.14,1.32,11.76,3.96,4.59,3.59,7.01,8.5,7.25,14.65,0,3-.4,5.79-1.29,8.28-1.21,3.37-2.66,6.67-4.27,9.81-1.53,3.44-3.38,6.45-4.75,9.45l-.48.88c-.4,1.1-.97,2.2-1.61,3.15l-2.74,4.25c-6.04,10.77-12.25,20.65-18.61,29.81-1.37,1.98-2.66,3.96-3.95,5.93-.89,1.25-1.77,2.49-2.74,3.59-.72.81-1.29,1.68-1.69,2.49-.89,1.54-2.26,3.59-4.27,6.15l-5.08,6.81c-1.85,2.42-3.46,4.69-4.67,6.67-2.01,3.08-3.63,5.35-4.92,6.74-1.53,1.68-2.42,3.15-2.66,4.32-.08.37-.16.73-.32,1.1v.07c-.08.22-.24.37-.48.59q-.08,0-.08.07c-1.13.66-1.93,1.54-2.42,2.78q-.08,0-.08.07c-.32.66-.81,1.32-1.45,1.83-.4.44-1.21,1.54-2.34,3.37-.4.59-.81,1.17-1.21,1.68-1.37,1.98-2.66,4.03-3.79,6.15-.89,1.68-1.85,3.37-2.9,4.98-.97,1.32-1.45,2.86-1.45,4.69l.08.73c0,1.54-1.13,2.56-2.82,2.56-1.45,0-2.58-.73-3.46-2.27-.24-.37-.56-.73-.89-1.1-.48-.51-.72-1.03-.72-1.54s.16-1.03.56-1.68c.81-1.46,1.53-2.93,2.26-4.39,1.21-2.34,2.5-4.61,3.95-6.81l1.13-1.83c1.69-2.86,3.62-5.64,5.8-8.28l.08-.15c2.18-2.49,4.19-5.05,6.12-7.69l.73-.95c.97-1.17,1.53-2.12,1.69-2.78,0-.51,0-.81.08-1.03.16-.59.72-1.25,1.61-1.98,2.5-2.27,4.83-5.05,7.17-8.35.32-.44.64-.88.89-1.39,1.93-3.08,4.11-6.01,6.53-8.79,2.98-3.44,4.67-5.57,4.92-6.37.16-.59.48-1.1.89-1.46.16-.15,2.18-3.08,6.12-8.72,1.69-2.71,3.3-4.83,4.67-6.37,1.21-1.32,1.93-2.42,2.01-3.22,0-.44.24-.95.81-1.61,1.69-2.05,3.87-5.42,6.36-10.03,1.05-1.98,2.18-3.81,3.46-5.64,1.05-1.25,1.69-2.42,1.77-3.37.08-.66.32-1.32.72-1.9,1.21-1.1,1.05-2.27,2.09-3.22q.08,0,.08-.07c.56-.66.89-1.39,1.05-2.27l.56-1.68c.4-1.1.97-1.76,1.69-2.12.32-.22.56-.44.81-.73-.08.07-.08.15-.16.15-.24,0-.08-.44-.32-1.03l.08-.44h-.16c-.32,0-.16-.22-.4-.22v-.15c0-.22,1.29-.44,1.61-1.54l.16-1.1c0-1.68,1.77-2.78,1.77-4.03,0-.29-.16-.59-.16-.95.08-.81.32-1.54.73-2.05.89-2.12,1.45-4.61,1.77-7.32l.08-1.9c0-2.56-.56-4.98-1.77-7.4-1.53-1.98-3.62-3-6.2-3l-1.45.07c-3.3.37-6.28,1.17-8.78,2.27-2.5,1.17-5.4,2.78-8.62,4.83-2.09,1.17-4.19,2.34-6.37,3.44-7.01,3.52-14.18,7.62-21.67,12.23-3.06,1.9-6.2,3.74-9.35,5.57-1.13.66-2.42,1.61-3.95,2.78-2.26,1.54-3.79,2.49-4.67,2.86-8.62,5.13-15.87,10.03-21.83,14.72-2.98,2.27-5.72,4.17-8.06,5.64-2.66,1.68-4.67,3.15-6.2,4.54-.89.88-1.61,1.32-2.26,1.32s-1.13.37-1.53,1.03c-.4.95-2.42,1.46-4.75,3.81-.48.51-.97.95-1.53,1.39-2.18,1.54-4.59,3.37-7.25,5.49-3.06,2.71-5.48,4.47-7.25,5.27-1.21.59-1.93,1.25-2.34,1.9-.16.66-.48.95-1.05.95-.97.22-1.37,1.25-1.77,1.46-.56.37-.81.73-.81,1.1h.08c.16,0,.32,0,.73-.22h.08c0,.22-.4.73-1.29,1.46-.4.37-.72.51-.97.51-.08,0-.16-.07-.24-.15l.4-.66c0-.22-.08-.29-.32-.29l-1.13.59c-1.37.81-2.09,1.46-2.26,1.83,0,.22.08.29.24.29s.4-.07.64-.22c1.21-.66,1.85-.95,2.01-.95.08,0,.08.07.08.29-.08.22-.56.66-1.37,1.25l-1.69,1.25c-1.05.73-2.58,1.98-4.51,3.74l-1.05,1.03c-1.93,1.61-3.22,2.64-3.87,3.15l-.56.59c-.56.66-1.05,1.03-1.45,1.03h-.24c-.16,0-.32,0-.4-.07-.24-.07-.48-.07-.73-.07-.72,0-1.77,1.1-1.77,1.25,0,.07.08.22.16.29.64,0,.73-.15.97-.15.08,0,.16.07.16.29,0,.37-.32.81-1.05,1.17-.97.88-1.61,1.46-1.93,1.68-.64.51-1.29,1.03-1.85,1.54-.89.95-2.01,2.05-3.54,3.3l-3.54,2.86c-.56.66-1.05,1.32-1.53,1.98-.56.95-1.61,2.12-3.06,3.59-.73.59-1.37,1.25-1.93,1.9-.24.37-.73.95-1.61,1.76.08-.07-.73.81-1.21.81l-.16-.15c-.24-.22-.4-.29-.48-.29s-.16.07-.16.29v.07c.16.29.48.37.48.66,0-.07-.16-.15-.4-.15-.73,0-1.29.37-1.37.66,0,.29.4.88.4,1.17,0,.95-2.01,2.05-4.83,6.15-.97,1.39-2.01,2.78-3.14,4.03-1.05.95-1.53,1.76-1.53,2.42,0,.15.08.22.24.22.24,0,.56-.15.89-.15.24,0,.32.07.32.29,0,.44-.32,1.03-.89,1.83-.32.44-.56.88-.72,1.39,0,.37-.16.73-.56.95h-.4c-.08,0-.16,0-.24-.07-.08-.07-.24-.07-.32-.07-.4,0-.64.29-.81.95l-.97,4.25c-.24.95-.56,1.83-.97,2.64-.89,1.25-1.29,2.93-1.29,5.05l-.08,1.61c-.08.22-.08.59-.08.95.24,0,.32.73.32.66l-.24-.15c.4.29.56.95.56,1.9v.44c0,1.39-.08,2.56-.32,3.52,0,.88.16,1.68.4,2.34.32.88.4,1.61.64,2.49.24.81.4,1.61.48,2.34l-.08.44c0,.66.16,1.1.48,1.32h.24c0-.07.08-.07.16-.07.08.07.08.22.08.44s0,.37-.08.51c0,.81-.08,2.12.48,2.12.24,0,.48-.15.72-.44.08.15.08.29.08.51l-.08.66c0,.88.08,1.39.32,1.54l.48-.07c.24,0,.56.22.56.29l-.24.37-.24.15c-.08.15-.08.37-.08.59.08.22.24.51.48.88l1.45,1.39-.56-1.25c-.08-.15-.16-.29-.16-.37s.08-.07.32-.07c.56.15,1.05.81,1.53,1.98l.32.59c4.03,6.01,10.88,10.47,20.62,13.4,4.27,1.32,8.7,2.34,13.13,3.15,9.67,1.9,19.42,3.08,29.33,3.59l8.94.44c7.09.22,14.18.59,21.19,1.17,9.18.59,16.52,2.71,21.99,6.3.73.37,1.21.88,1.61,1.54.24.22.4.37.4.44,0,.51-.73.51-1.05.81.16.15.56,1.32.56,1.61.08.37.48.95,1.21,1.76.24.22.4.51.48.81.24.59.64,1.1,1.21,1.61.64.73.97,1.32.97,1.68,0,.66-.56.88-1.13,1.17-.48.07-.89.29-1.13.59-.97-1.68-2.34-2.86-4.19-3.59l-.81-.22c-.64-.15-1.13-.37-1.53-.66l-.4-.51c-.24-.44-.64-.81-1.13-1.1-1.53-.66-3.3-1.03-5.32-1.03h-.89c-.56-.07-1.45-.07-2.5-.07-.64.07-1.29.15-1.85.22-.89.22-1.85.29-2.9.29h-1.37c-1.69,0-3.14.29-4.43.88-.89.44-2.17.81-4.03,1.1l-2.09.29c-1.29.07-2.34.37-3.06.73-.89.37-1.69.51-2.26.81-.32.15-.64.29-.97.37l-.48-.07c-.97,0-1.77.66-2.98.66-1.85.22-3.14,1.39-5.16,1.9-1.05.29-2.01.73-3.06,1.39l-1.05.59c-4.75,2.27-8.78,4.32-11.92,6.08-1.61.95-3.22,1.98-4.75,3-2.01,1.46-4.19,2.78-6.45,4.03-1.85,1.03-3.63,2.2-5.24,3.52l-2.58,1.68c-1.61.66-.81,1.46-3.06,2.34-1.05.44-2.17,1.32-3.38,2.71l-.32.37c-3.3,3.3-5.16,4.98-5.56,5.2l-.81.73c-1.21,1.32-2.66,2.42-4.27,3.22-.4.15-.89.22-1.21.51-.24.22-.24.44-.24.59-.08.15-.08.22-.56.37s-1.13.29-1.13.37c.4.15.64.29.64.44l-.73.73c-.72.66-1.53,1.54-2.42,2.71-.72.95-1.85,2.05-2.82,3.37-.48.66-1.05,1.17-1.77,1.68l-.48-.37c-.48-.22-.81-.29-.89-.29s-.08,0-.08.07v.07c.08.22.81.73.81,1.03s-.4.51-.4.59c-.48.44-.97.81-1.29.88-.32,0-.32.22-.89.22-.08,0-.48-.44-.81-.44-.56,0-.81.44-.81,1.39-.24,1.39-1.21,1.9-1.21,2.78.08-.22.4-.37.64-.44h.08c.24,0,.32.07.32.29s-.24.51-.64.88l-1.93,1.98c-.4.59-.89.95-1.53,1.03l-.24-.07c-.81,0-1.21.15-1.21.44l.16.07.64-.07c.24,0,.32.07.32.15s0,.22-.72.88c-.73.59-1.21,2.27-2.42,3.44-.56.59-1.05,1.54-1.37,1.61s-1.05,0-1.29.29c-.24.22-.64,1.46-1.93,2.78-1.37,1.32-1.45,3.08-2.42,4.03v-.07c0-.29-.32-.59-1.05-.88-.48,0-.73.22-.73.59,0,.29.16.44.48.44.24,0,.64-.29.64.37l-.16.37c-.24.51-.64.95-.89,1.54-.08-.07-.16-.44-.16-1.1l.08-.81c-.08-.22-.16-.29-.4-.37-.24,0-.4.07-.48.29-.24.59-.4,1.1-.4,1.54v.07c-.08.07-.16.51-.16,1.17q.08,0,.16.29c.08,0,.08-.15.32-.15l.48-.37v.37c-.4.37-1.29,1.46-1.37,1.54l-.73-.15c-.08,0-.32-.07-.32.73l-.08.44c-.32,1.25-.56,1.76-1.13,2.34-.56.66-.97,1.46-1.29,2.27-.56,1.46-1.05,2.27-1.61,2.34-.32.07-1.21-.07-1.21.51,0,.22.16.44.16.73,0,.59-1.85.29-2.58.95-.72.66-1.13,1.25-1.13,1.68,0,1.25.16,1.61.24,2.27,0,.37-.16.88-.56,1.54-.24.44-.48.66-.72.66-.56,0-.4-.73-.48-.73-.24,0-.4.07-.48.22-.32.37-.48.81-.48,1.17,0,.59.56.81.56,1.17s-.24.95-.72,1.76c-.56.81-1.13,1.17-1.77,1.17-.4,0-.64.07-.81.22-.4.37-.64.81-.64,1.17,0,.51.56.66.56,1.03,0,.73-.4,1.32-.56,1.61-.24.29-.4.66-.48,1.03-.56,1.54-1.21,2.42-2.09,2.56-.56.15-.89.37-.97.73-.08.15-.08.37-.08.59l.08.29c0,1.25-.48,1.39-1.21,1.39-.24-.07-.48-.51-.72-.51s-.4.15-.4.51c0,.29.56.81.89.81.72.07,1.05.15,1.05.29,0,.07-.08.15-.32.15l-.72-.07c-1.29,0-1.21.15-1.21.37s.73.95.73,1.17c0,.07-.08.07-.16.15l-1.05-.07c-.24,0-.4.07-.48.15l-.08.15c0,.37.81.51,1.05.51s.4.07.4.59c-.08.66-.48,1.25-1.05,1.76l-.97.95s.32.07.32,1.1c0,.59-.48,1.25-1.45,1.9-.56.29-.89.73-.89,1.39l.08.73c0,.66-.89,1.03-.89,1.68,0,.15.32.22.32.51,0,.07-.08.22-.24.37-.32.29-.48.66-.48,1.1,0,.81-.16,1.17-.48,1.17-.24,0-.81-.95-1.13-.95-.56.07-.81.88-.81,2.42.08.51.16,1.03.16,1.39,0,.44-.08.88-.24,1.32l-.16.66c-.32,1.46-1.45,2.05-2.09,2.05l.97.15c-.08.29-.24.59-.56.88-.32.51-.48.81-.48.95,0,.29-.08.15.48.51.08.22.16.37.16.51l-.16.51c-.4.88-.4,2.49-1.37,5.49-.48,1.54-.89,3.15-1.21,4.91-.08.37-.16.81-.16,1.17-.08,1.25-.4,2.2-.97,2.86-.4.44-.56.81-.56,1.17,0,.29.32.29.56.29.32.07.48.44.48,1.03,0,.37-.08.88-.24,1.46-.24.81-.32,2.2-.32,4.32.4,7.54,3.14,13.26,8.22,17.07,3.06,1.9,5.8,2.93,8.14,3,2.34.07,3.95.07,4.83.07,9.02,0,17.16-1.32,24.49-3.96,10.07-3.59,19.5-7.76,28.2-12.67l6.45-4.1c2.26-1.25,4.51-2.49,6.85-3.74,3.46-1.98,5.56-3.3,6.36-3.96l2.74-1.54c.4-.29.81-.59,1.21-.95.89-.81,1.61-1.25,2.34-1.46,1.05-.37,1.93-1.03,2.74-1.83,1.21-1.25,3.22-2.71,6.2-4.25,1.13-.51,2.09-1.25,2.9-2.2,1.13-1.1,2.5-1.9,4.11-2.56,1.13-.51,1.85-1.03,2.26-1.39.24-.37.48-.59.73-.59.32,0,.48.37.81.37.24,0,.56-.15,1.05-.44h.08c.89-.59,1.61-1.25,2.26-2.05,2.01-2.27,5.08-4.69,9.1-7.32l2.66-1.76c1.69-1.25,2.74-2.05,3.14-2.42.56-.81,1.21-1.25,1.93-1.25.08,0,.16.37,1.13.37.56-.07,1.13-.66,2.01-1.25,2.42-1.76,3.95-2.78,4.59-3.08.56-.29.97-.44,1.21-.44s.32.07.32.22c0,.44-.89,1.25-2.74,2.34l-3.46,2.27c-.08.07-.24.22-.48.29-1.13.59-1.77,1.1-1.85,1.54,0,.15.08.22.32.22.4,0,.97-.22,1.69-.66l.48-.29c1.69-1.17,3.14-2.42,5-3.52,1.61-.88,2.5-1.54,2.58-2.05,0-.37-.16-.37-.24-.37l-.24.07c-.56,0-.89-.15-.89-.37s.24-.59.72-1.03c.73-.66,1.45-1.17,2.34-1.68l1.21-.81c.73-.51,1.45-.95,2.18-1.17-.08,0-.16,0-.16-.07,0-.44.64-.51.81-.51s.24.07.24.29l-.08.37c.08-.44.64-1.1,1.53-1.9.4-.37.81-.59,1.13-.59.24,0,.4.15.48.37,0,.88-1.13,1.54-2.17,2.12-.24.15-.48.29-.64.44,1.53,0,1.69,0,2.42-.59.72-.66,1.45-1.25,2.26-1.76,1.53-1.1,3.06-2.2,4.51-3.37l.48-.29c.16-.37.89-.88,2.26-1.61,1.05-.37,2.5-.81,2.5-1.76,0-.22-.16-.37-.48-.44-.4,0-.97.37-1.69,1.03q0,.07-.08.07c-.64.81-1.21,1.39-1.77,1.68-.16.07-.48.15-1.05.15-.08-.07-.24-.07-.4-.07-.72,0-.81.51-.89.88,0,.51-.48,1.03-1.37,1.46l-1.05.81c-.56.66-1.13,1.03-1.69,1.1-.48,0-.72-.15-.72-.44,0-.44.24-.73.81-.95h.24c1.21,0,.32-.88,1.05-.88.08.07.16.07.24.07.32,0,.64-.22,1.05-.73.56-.73.89-1.17.89-1.25.4-.51.73-.81,1.13-.81s.48.15.81.15c.08,0,.32-.07.56-.29l.89-1.03c.32-.51.73-.95,1.21-1.32.08.22.32.29.56.29.4-.22.81-.66,1.37-1.46.32-.44.4-.59,1.21-.81.08,0,.16.15.16.44s-.4.73-.4.95v.22c0,.15.08.29.32.37.89,0,1.93-.59,3.06-1.76l1.37-1.17c.24-.22.56-.29.97-.29.81,0,1.37.37,1.37.66,0,.07-.08.22-.16.37.16-.22.24-.73.24-1.39s-.16-.95-.48-.95c-.08,0-.24.07-.48.22l-.4.15c-1.21.66-1.93.95-2.18.95-.16,0-.24-.07-.32-.15,0,.37-.48,1.39-.97,1.76-.24.15-.48.22-.64.22-.4,0-.56-.22-.56-.59s.32-.88,1.05-1.46l.73-.66c.64-.37,1.37-.73,2.09-1.1,1.77-.88,3.62-2.12,5.48-3.66l2.17-1.83c1.85-1.54,3.14-2.49,4.03-2.78.64-.22,1.29-.51,1.85-1.03,1.77-1.68,4.27-3.59,7.57-5.57,1.21-.73,2.34-1.54,3.38-2.34,2.5-1.98,4.91-3.3,7.25-3.96.4-.07.81-.29,1.13-.73.56-.81,1.77-1.54,3.54-2.34l2.74-1.54c2.26-1.39,4.03-2.34,5.32-2.86,2.09-.95,3.38-1.83,3.87-2.64.32-.66.89-1.17,1.77-1.61l.16-.07c1.53-.81,3.14-1.54,4.75-2.2l1.05-.44c3.38-1.61,6.93-2.78,10.63-3.59.32-.07.72-.15,1.13-.15.72,0,1.13.22,1.13.73s-.32.81-.89,1.03c-.16.07-.4.15-.64.15-1.21.29-.97.29-1.21.81.08.22.64.29.64.66-.08-.07-.16-.07-.24-.07-.4,0-1.13.37-2.34,1.03l-1.53.95c-1.21.73-2.98,1.61-5.32,2.64-2.09.88-4.11,1.9-6.04,3l-1.69,1.03c-2.17,1.25-3.54,2.05-4.11,2.49-.56.37-1.21.73-1.93,1.1-2.34.88-2.9,1.39-3.46,2.05-.56.66-1.29,1.17-2.09,1.68-1.21.66-2.26,2.05-3.95,2.78-.89.37-1.29.73-1.29,1.25-.08.29-.4.51-.81.73-.08,0-.16,0-.24.07-.89.29-1.61.73-2.17,1.32-1.61,1.1-3.3,2.05-5.16,3.3-1.85,1.54-3.3,2.56-4.35,3.22-1.69,1.1-3.38,2.27-4.92,3.52-.08.07-.16.15-.24.22-.73.73-1.45,1.1-2.18,1.1s-1.29.59-1.69,1.1c-.4.66-1.29,1.32-2.66,2.12l-.24.15c-1.53.95-2.9,1.9-4.27,3-.48.29-1.13.59-1.85.88-.89.51-1.37,1.17-1.93,1.54-.73.51-1.37,1.03-2.01,1.54v.07c-.32.22-.64.37-1.05.44-.89.22-1.85.95-2.98,2.2-.81,1.03-2.34,2.2-4.59,3.44-3.79,2.12-6.37,3.96-7.73,5.57-.16-.15-.32-.22-.4-.22-.4,0-.97,1.17-1.37,1.17-.08,0-.24-.07-.4-.22l-.16.15c-.56.81-1.37,1.39-2.34,1.83-.08.07-.24.15-.4.15-.56.22-1.05.59-1.45,1.1-.08.22-.24.37-.4.51-1.37,1.32-3.46,2.86-6.37,4.61-.89.66-1.85,1.25-2.9,1.83-2.82,1.76-5.16,3.44-7.01,5.13l-2.26,1.98c-1.13.73-2.09,1.46-2.98,2.27-.72.59-1.53.81-3.46,2.27-1.37,1.17-2.9,2.12-4.51,2.86-1.61.66-3.06,1.68-4.35,2.93-.89.95-2.66,2.2-5.24,3.88l-3.22,2.12c-.72.51-1.45,1.03-2.17,1.54-.64.29-2.34,1.83-4.03,2.49-1.21.29-2.18.81-2.18,1.32-.4.51-.81.88-1.21,1.03-.32.07-1.45.07-1.53.15l.08.44c-.16.29-.48.59-.89.88-2.17,1.54-3.71,2.56-4.59,3l-2.26,1.39c-1.29.95-3.06.51-3.71,1.32l-.4.59c-.97,1.46-1.85,1.25-2.5,1.83-.4.37-.97.66-1.69.81l-1.05.44c-.64.37-1.29.81-1.85,1.32-2.01,1.54-4.75,3.08-8.38,4.61-1.93.59-3.54,1.39-4.75,2.34-1.29.95-3.79,2.12-7.49,3.66l-3.14,1.32c-.08.07-.24.15-.4.22-2.66,1.25-5.4,2.27-8.3,3.08-.97.22-2.42.59-4.35,1.1-.81.29-1.61.51-2.42.59-1.21.07-2.58.66-3.79.73-1.69,0-2.34.22-3.06.51-.89.37-1.53.51-1.93.51s-.72-.07-1.13-.29ZM1.77,361.96h.08c0,.07,0,.22.08.22-.08,0-.08-.15-.16-.22ZM2.26,359.77c0-.22,0-.29.08-.37.08,0,.16.07.16.22,0,.07,0,.15-.08.15h-.16ZM2.98,373.02c.32-.15.72-.88.72-1.03,0-.07,0-.22-.24-.22-.4,0-.73.66-.73,1.03l.08.22h.16ZM3.46,370.17l.08-.29c.24-.59.16-1.46,0-1.46-.32,0-.48.15-.48.51l.4,1.25ZM3.22,356.54c.16,0,.24.07.24.15,0,.22-.08.29-.24.37v-.51ZM4.27,376.61v-.29c.08-.07.08-.15.08-.22v-.07c0-.07-.08-.15-.24-.22-.16.22-.24.37-.24.44,0,.22.08.37.24.37h.16ZM4.43,374.71c.56-.81.89-1.98.89-3.52,0-.66.08-1.25.16-1.83.08-.07.16-.59.4-1.54.08-.51.16-.95.16-1.46,0-.22-.08-.29-.24-.29-.24,0-.4.44-.56,1.32-.16.51-.24.88-.24,1.03-.72,2.78-1.05,4.76-1.05,6.01,0,.29.08.44.16.44l.32-.15ZM4.67,365.26c1.37-2.71,2.34-5.49,2.9-8.35.89-4.25,3.22-10.55,7.01-18.97l.16-.22c3.95-8.57,8.78-17.21,14.58-26,5.72-9.38,9.99-15.67,12.73-18.9.73-.81,1.53-1.68,2.42-2.49,1.21-.95,1.85-1.76,1.85-2.56,0-.29-.16-.44-.4-.44-.4.07-.81.44-1.13,1.03l-6.36,7.91c-2.5,2.93-4.67,6.01-6.53,9.3-2.74,4.98-5.72,9.81-8.94,14.58-.64,1.03-1.21,2.05-1.69,3.15-.72,1.68-1.77,3.3-2.98,4.69l-1.13,1.1.08.66c0,.81-.48,1.9-1.37,3.3-.73,1.1-1.53,2.56-2.26,4.39-.48,1.17-1.05,2.34-1.61,3.52-.97,1.83-1.61,3.44-2.01,4.76l-.48,1.46c-.24.44-.56.81-.89,1.1-.64.44-1.05,1.03-1.13,1.68v2.2c0,1.1-.32,2.12-1.05,2.93-1.05.95-.81,1.61-.81,1.98l.08.95c0,1.1-.24,2.2-.73,3.15-.4.81-.64,1.61-.72,2.42v.15c0,1.1.08,1.61.24,1.61l.16-.07ZM5.8,348.93q-.08,0-.08-.07l-.08-.07c0-.15.08-.22.24-.22.08.07.08.15.08.22l-.16.15ZM6.61,364.01c.24-.51.4-1.1.4-1.76l-.08-1.32c0-.15,0-.22.08-.29-.73.88-1.05,1.76-1.05,2.71,0,.37.08.66.24,1.03l.4-.37ZM6.61,353.03c.48-.29.73-.59.73-.95,0-.15-.08-.22-.16-.22-.4,0-.56.29-.56.81v.37ZM7.49,343.58c-.08,0-.08-.07-.16-.15,0-.15.08-.22.24-.22q.08,0,.08.07l-.16.29ZM7.65,359.33c0-.22-.08-.29-.16-.29s-.16.07-.16.22.08.22.16.22.16-.07.16-.15ZM8.14,358.23c0-.22-.08-.29-.16-.29s-.16.15-.16.22v.07c0,.07.08.07.16.07l.16-.07ZM8.22,349.66c0-.22.16-.51.56-.88l.08.15c0,.29-.56.81-.64.81v-.07ZM8.94,355.74q0-.07-.08-.07c-.08.07-.24.37-.4.81-.08.22-.16.44-.16.66q0,.07.08.07l.56-1.46ZM9.1,365.19c-.08-.07-.32-.37-.32-.59-.16,0-.24.07-.24.15,0,.22.64.81.89.81l-.32-.37ZM9.02,369.73l-.32-.07c-.08.07-.16.15-.16.22.08.07.16.15.24.15.16,0,.24-.07.24-.29ZM9.51,367.31c.24,0,.32-.07.32-.15l-.4-.22c-.16,0-.24,0-.32.07h-.08c0,.22.08.29.32.29h.16ZM9.1,339.48c0-.15.08-.29.16-.37.08,0,.16.07.16.15,0,.22-.08.37-.24.44l-.08-.22ZM9.43,345.78c0-.15-.08-.22-.24-.22l-.08.29c0,.07,0,.15.08.15l.24-.22ZM9.91,352.44c.24-1.1.4-1.68.48-1.76-.4.07-.73.51-.89,1.32-.4,1.54-.32,1.32-.32,2.12,0,.51.08.73.16.73.24-.37.48-1.17.56-2.42ZM9.43,338.82c0-.07,0-.29.24-.59v.22c0,.22,0,.37-.08.44l-.16-.07ZM9.83,344.6c.16,0,.64-.88.64-.81,0-.07-.08-.15-.16-.22-.24,0-.48.59-.48.95v.07ZM9.99,338.01q-.08,0-.08-.07c0-.22.08-.51.16-.73l.08.37c0,.07,0,.22-.08.29l-.08.15ZM11.12,358.52l-.08-.07c-.4,0-.64,0-.73.07.08.07.24.15.32.15.32,0,.48-.07.48-.15ZM12.57,345.41c.08,0,.16-.07.16-.15,0-.37,0-.51-.08-.51-.08.07-.24.15-.32.66h.24ZM12.57,357.57c-.08,0-.08-.07-.08-.15,0-.15,0-.22.08-.22.16,0,.24.07.24.15l-.24.22ZM13.62,351.49c-.08-.07-.16-.07-.24-.07s-.16.07-.24.15c.08.07.16.07.24.07s.16-.07.24-.15ZM13.54,343.73c.08,0,.08-.15.08-.37,0-.07,0-.15-.08-.15-.16,0-.24.07-.24.22,0,.22.08.29.16.29h.08ZM13.46,350.9l.24-.22c0-.07-.08-.07-.24-.07l-.08.22.08.07ZM14.58,327.54c0-.22.89-1.83,1.13-2.05q.08,0,.08.07c0,.22-.08.51-.16.81-.4.81-.64,1.25-.89,1.25l-.16-.07ZM15.23,341.24c.08,0,.16-.07.16-.15s-.16-.15-.24-.15-.16,0-.16.07l.24.22ZM15.39,349.15c.16.07.24.22.24.29l-.24-.29ZM15.87,325.12c0-.07.08-.15.16-.15l.16.22c0,.15,0,.22-.08.22s-.24-.22-.24-.29ZM16.03,344.9c.24-.22.32-.37.32-.59s-.08-.29-.16-.29c-.16,0-.24.15-.24.37l.08.51ZM16.76,343.51c0-.22-.08-.29-.16-.29-.16,0-.24.07-.24.22,0,.07.08.15.32.15l.08-.07ZM17.4,335.6c0-.15-.16-.22-.4-.22-.16,0-.24.07-.24.22,0,.22.08.37.24.37.24,0,.4-.15.4-.37ZM17.97,334.35c0-.07-.08-.07-.16-.15-.32,0-.48.22-.48.66,0,.07,0,.15.08.15,0,0,.56-.22.56-.66ZM18.05,320.8c.08,0,.08.07.08.15l-.08-.15ZM18.53,320.14l.24-.51c.08-.22.24-.37.4-.37,0,.37-.16.66-.48.88h-.16ZM20.22,317.36c0-.07.08-.15.16-.15l.16.22c0,.07-.08.15-.32.15v-.22ZM22.64,330.4c.08-.07.24-.37.32-.66l-.16-.07c-.24,0-.4.37-.4.59,0,.07.08.15.16.15h.08ZM22.88,333.11c-.08,0-.16-.07-.16-.22,0-.07.08-.22.24-.29.08,0,.16.07.16.15,0,.22-.08.37-.16.37h-.08ZM23.61,311.57c0-.22.08-.37.16-.44.08.07.08.15.08.22,0,.22-.08.29-.16.29l-.08-.07ZM25.22,327.54c0-.22-.16-.29-.48-.29-.24,0-.32.07-.32.22,0,.29.16.44.56.44.16,0,.24-.15.24-.37ZM26.02,326.07c-.08-.22-.24-.37-.4-.37-.4,0-.64.22-.64.59,0,.15.16.22.48.22.4,0,.56-.15.56-.44ZM26.1,325.12c-.08-.07-.08-.15-.16-.15l-.24.07q.24.22.32.22c.08,0,.08-.07.08-.15ZM25.78,307.84c0-.07.08-.15.16-.15l.08.07c-.08.22-.16.37-.24.37v-.29ZM26.83,325.56q.08,0,.08-.07c0-.15-.08-.29-.16-.37l-.08.15.16.29ZM28.68,320.07c0-.07,0-.15-.08-.15l-.32.15c.08.22.08.29.16.29s.24-.22.24-.29ZM29.65,301.83c0-.07.08-.15.16-.22l.08.15c0,.07-.08.15-.24.15v-.07ZM29.97,301.1c0-.07.08-.15.16-.15s.16.07.16.22c0,.22-.08.29-.16.29s-.16.15-.16-.37ZM33.68,312.74c0-.22.4-.88,1.21-1.83.56-.66.97-1.03,1.21-1.03.08,0,.16.07.24.22,0,.88-1.61,2.78-2.34,2.78-.24,0-.32-.07-.32-.15ZM34.72,294.43c0-.07,0-.15.08-.15l.16.15c0,.07,0,.15-.08.15l-.16-.15ZM40.12,302.56c-.08.07-.16.15-.16.22l.16-.22ZM45.84,280.08v-.15c0-.29.16-.44.56-.44.08,0,.08.07.16.15,0,.22-.48.51-.64.51q-.08,0-.08-.07ZM49.39,284.4l.24-.44c1.85-2.71,4.35-5.71,7.49-8.86l.08-.15c.4-.37.89-.95,1.53-1.76.24-.37.4-.59.48-.73v-.22c0-.07-.16-.15-.48-.15-.64.15-1.53.95-2.58,2.49-.24.44-.56.81-.81,1.03-1.37,1.54-2.66,3.08-3.95,4.61l-1.13,1.25c-2.98,3.44-3.38,4.25-3.38,4.83,0,.15.08.22.24.22.72,0,1.53-.73,2.26-2.12ZM47.29,292.97l.24-.07-.24-.07-.16.07.16.07ZM47.53,278.17c0-.22.08-.37.16-.44.08,0,.08.15.08.37,0,.07,0,.15-.08.22l-.16-.15ZM48.34,146.92c0-.07-.08-.15-.16-.22l-.16.07c0,.15.08.22.16.22l.16-.07ZM48.66,165.16c-.08.07-.16.15-.16.22l.16-.22ZM49.79,288.94l.08-.22-.08-.22-.08.22.08.22ZM49.79,159.96c0,.07.08.15.16.22,0-.07-.08-.15-.16-.22ZM50.6,275.68c.08.07.08.15.16.15l-.16-.15ZM51.97,157.84c-.08-.22-.16-.44-.16-.66v-.07c0-.07.08-.15.16-.22.08.07.08.15.08.22l-.08.73ZM51.88,288.35q-.08,0-.08-.07c0-.15.08-.22.24-.22q.08,0,.08.07c0,.07-.08.15-.16.22h-.08ZM52.53,138.35c0-.22,0-.29-.08-.29h-.16c-.08,0-.08.07-.08.29,0,.07-.08.29.16.37.08-.07.16-.22.16-.37ZM52.53,152.78c0-.07,0-.15-.08-.15l-.16.15c0,.07,0,.15.08.15l.16-.15ZM54.79,135.21c0-.22-.08-.37-.16-.59l.08.22c0,.37-.4.81-1.13,1.25-.24.22-.32.29-.4.29-.4.37-.64.66-.64,1.03v.07c0,.29.08.44.24.44-.16,0,2.01-1.83,2.01-2.71ZM53.9,285.57c0-.29-.08-.44-.16-.44-.24,0-.56.37-.56.81,0,.07.08.15.24.15.24,0,.48-.29.48-.51ZM54.54,129.93c.08,0,.24-.07.32-.15v-.07c.08-.07.16-.22.16-.37q0-.07-.08-.07l-.64.59.24.07ZM54.71,179.59c-.08-.22-.16-.29-.24-.29s-.16.07-.16.15c0,.15.08.22.32.22q.08,0,.08-.07ZM54.95,282.57v-.15c.08-.07.16-.37.16-.44v-.15c-.24.22-.4.59-.4.66l.24.07ZM55.11,270.78c0-.07-.08-.15-.16-.15s-.16.07-.16.15c0,.15.08.22.24.22.08,0,.08-.07.08-.22ZM55.91,145.09c.08-.07.08-.15.08-.22.24-.44.32-.81.32-1.1q0-.07-.08-.07c-.32,0-.48.29-.48.88,0,.37,0,.51.08.51h.08ZM57.36,131.25c.81-.59,1.21-1.03,1.21-1.25s-.16-.37-.4-.37c-.89,0-1.77,1.61-1.77,1.98,0,.15.08.29.16.37l.81-.73ZM56.64,142.68c.08,0,.56-.29.56-.37s-.16-.15-.56-.15l-.16.51h.16ZM58.09,185.82c0-.22-.08-.44-.16-.59l-.08.22c0,.22.08.37.16.37h.08ZM58.41,140.04c0-.29.81-1.32,1.53-1.32h.16c-.32.29-1.29,1.83-1.45,1.83-.16-.15-.24-.29-.24-.51ZM58.41,186.04q0,.07.08.07l-.08-.07ZM58.97,186.4c0-.07-.08-.07-.16-.07-.16,0-.24,0-.24.07,0,.22.08.29.24.29.08,0,.16-.22.16-.29ZM59.38,187.28l-.08-.22c0-.07-.08-.07-.16-.15h-.08c-.08,0-.08.07-.08.15,0,.22.16.29.24.29s.16,0,.16-.07ZM59.38,134.47c0-.07-.08-.15-.24-.15-.08,0-.08.07-.08.15s.08.15.16.15l.16-.15ZM65.02,122.97c1.21-1.54,2.58-2.93,3.95-4.32,3.46-3.22,6.85-6.45,10.15-9.74l.73-.59c.89-.51,1.29-.95,1.29-1.39q0-.07-.08-.07c-.4,0-1.37.73-2.82,2.12-.73.81-1.45,1.54-2.34,2.2-3.22,2.56-6.45,5.64-9.67,9.16-1.85,1.68-3.38,3.52-4.75,5.49l-.4.66c-.64,1.54-1.29,2.27-1.93,2.27,1.05-.59,3.06-2.49,5.88-5.79ZM63.41,268.29c.97-1.17,2.09-1.98,2.34-2.78,0-.07-.08-.15-.24-.15-.56,0-1.29.51-2.34,1.61-.16.22-.32.37-.48.44-1.37,1.46-2.09,2.27-2.09,2.42-.24.22-.4.44-.4.66,0,.29.08.44.32.44.32,0,1.29-.88,2.9-2.64ZM60.42,137.62c.08-.15.16-.22.32-.22.08,0,.32.07.32.15-.24.15-.4.22-.48.22s-.16-.07-.16-.15ZM60.83,133.81l.64-.51c-.08,0-.73,0-.81.22l.16.29ZM61.55,401.59l-.24-.07c-.24,0-.4.07-.48.15,0,.07.16.15.4.15s.32-.07.32-.22ZM61.15,136.74c0-.07.08-.07.16-.15.08,0,.08.07.16.15v.07q0,.07-.08.07c-.16,0-.24-.07-.24-.15ZM61.96,131.4c0-.07-.08-.15-.16-.15s-.16,0-.16.07,0,.15.08.15l.24-.07ZM61.96,132.57c0-.15-.08-.22-.16-.22s-.16.07-.16.15c0,.15.08.22.16.22s.08-.07.16-.15ZM61.63,276.64c0-.15,0-.22.08-.22l.24.15c0,.07-.08.15-.16.15s-.16,0-.16-.07ZM64.21,397.78q.08,0,.08-.07c.32-.22.56-.37.64-.44l.08-.07q0-.07-.08-.07c-.24,0-.48.07-.89.22l-.64.37c0,.07.08.07.32.07h.48ZM64.45,128.76v-.07c0-.22-.16-.29-.4-.29-.08,0-.16.07-.16.15,0,.22.16.37.4.37.08,0,.16-.07.16-.15ZM64.45,129.79c0-.07,0-.15-.08-.15l-.16.07c0,.22.08.29.16.29l.08-.22ZM64.7,271.8l.24-.22v-.29l-.24.51ZM65.18,117.11q.08,0,.08-.07l-.08-.22c-.08,0-.08.07-.16.22l.16.07ZM66.63,396.61s-.24-.22-.4-.22c-.24,0-.32.07-.32.15.08.07.24.15.4.15l.32-.07ZM66.71,264.33c.64-1.03,1.45-1.9,2.5-2.64,1.53-1.17,2.34-1.98,2.34-2.42,0-.07-.08-.15-.16-.15-.32,0-.72.22-1.13.73-1.13.95-2.17,1.98-3.14,3.08-.73.66-1.13,1.25-1.13,1.68,0,.07.08.15.16.15.16,0,.32-.15.56-.44ZM66.95,125.1l-.24-.07c-.24,0-.32.15-.32.51q0,.07.08.07c.32,0,.48-.15.48-.51ZM67.68,124.8c.32-.22.64-.66.64-.88-.08-.15-.16-.22-.24-.22-.56,0-.97.59-.97.81s.08.29.32.29h.24ZM67.68,396.39c.56,0,.64-.88.64-.66h-.08c-.24,0-.4.07-.64.15l-.24.07c-.08,0-.08.07-.08.22s.08.22.24.22h.16ZM68.88,123.34c.64,0,.56-.51.56-.59-.4.22-.64.37-.64.51l.08.07ZM70.09,394.34c0-.15-.08-.22-.16-.22-.16,0-.24.07-.24.22h.4ZM70.09,265.94c0-.15-.08-.22-.16-.29-.08,0-.16.07-.16.29,0,.07-.08.29.16.29.08,0,.16-.07.16-.29ZM70.9,121.58c0-.22-.08-.44-.32-.44-.4,0-.64.73-.64,1.03,0,.22.08.29.32.29.4,0,.64-.29.64-.88ZM70.5,112.35c0-.07-.08-.15-.24-.15l-.08.07c-.08.07-.08.15-.08.22,0,.15.08.22.24.22.08,0,.16-.15.16-.37ZM70.82,264.62v-.15q-.08,0-.08.07l-.08.07h.16ZM71.7,394.34l.08-.15c0-.07-.24-.15-.32-.15-.24,0-.4.15-.4.51,0,.07.08.15.16.15,0,0,.4-.15.48-.37ZM71.79,120.63v-.07c0-.15-.08-.22-.24-.22l-.08.15c0,.22.08.29.16.29s.08-.07.16-.15ZM71.95,264.26l.08-.15c0-.07-.08-.15-.32-.15-.08,0-.16,0-.24.07v.22h.48ZM72.35,393.97l.24-.15q0-.07-.08-.07c-.08,0-.24.07-.24.15l.08.07ZM73.4,110.08c.08,0,.08-.15.08-.51,0-.29-.08-.44-.16-.44-.32,0-.48.29-.48.81,0,.29.08.44.24.44.08,0,.24-.07.32-.29ZM73.56,119.17c.4-.22.64-.37.72-.51,1.37-1.25,2.01-2.05,2.01-2.49q0-.07-.08-.07c-.4,0-.89.44-1.53,1.25-.56.66-.97.95-1.05,1.03-.32.22-.48.37-.48.51,0,.22.08.29.32.29h.08ZM73.88,390.45c0-.29-.73-.37-.73-.07,0,.15.16.22.48.22.16,0,.24-.07.24-.15ZM73.32,257.96c.32,0,.81-.51,1.37-1.61.4-.66.72-1.17.81-1.17-.4,0-.81.37-1.37,1.17l-.72.95c-.08.22-.16.44-.16.51l.08.15ZM73.8,393.31c.97-.22,1.45-.44,1.45-.66s-.16-.29-.4-.29c-.32,0-.56.15-.81.44-.16.22-.24,0-.73.44,0,.22,0,.37.08.37s.16-.22.4-.29ZM74.69,108.76l-.08-.15c-.08,0-.16.07-.16.22s.08.22.16.22.08-.07.08-.29ZM76.54,254.59c.56-.22.81-.44.81-.73-.08-.29-.16-.44-.24-.44l-.08.15c-.08.07-.48.59-.48.88v.15ZM77.26,115.43c0-.07-.08-.15-.32-.15-.16,0-.24,0-.32.07v.07c0,.15.08.22.24.22.08,0,.4-.15.4-.22ZM78.07,106.57q0-.07-.08-.07c-.89,0-1.29.37-1.29,1.03,0,.22.08.29.16.29.32,0,1.21-1.17,1.21-1.25ZM77.91,259.57c-.08-.15-.56-.37-.64-.37s-.08,0-.08.07l-.16.29v.37c0,.07.08.15.24.15.4,0,.64-.37.64-.51ZM77.91,114.62c.24-.07.32-.15.32-.22,0-.15-.89-.22-.89.22,0,.07.16.22.24.22.16,0,.24-.07.32-.22ZM79.44,390.16h-.24c-.56,0-.97.15-1.29.44-.08.22-.16.37-.16.44v.07c.24.07.4.15.4.22,0-.22,1.05-1.17,1.29-1.17ZM79.12,113.75c.32,0,.97-.88,1.29-1.39-.08-.07-.24-.07-.56-.07-.56.22-.81.66-.81,1.25l.08.22ZM80,256.79c.16-.07.24-.22.24-.37s-.08-.22-.24-.22c-.24,0-.4.29-.4.44,0,.07.08.15.16.15h.24ZM81.37,389.14c0-.29-.08-.51-.32-.51-.32,0-.64.51-.64,1.03,0,.07.08.15.16.15.4,0,.73-.22.81-.66ZM81.13,111.55c-.08-.07-.08-.15-.16-.15s-.08.07-.16.15c.08.07.08.15.16.15s.08-.07.16-.15ZM82.1,250.27c0-.15-.08-.22-.24-.22-.32,0-.56.22-.56.44,0,.07.16.22.4.22s.4-.22.4-.44ZM83.06,102.32c-.08,0-.16-.15-.16-.37,0-.44-.08-.66-.32-.66-.32,0-.97.59-.97.81s.32.29.97.29l.48-.07ZM82.18,110.82c.48,0,.73-.22.73-.66,0-.22-.08-.29-.24-.29-.4,0-.56.29-.56.88l.08.07ZM82.9,99.68c0-.07-.08-.15-.16-.22-.08,0-.16.07-.16.29,0,.07-.08.29.16.29l.16-.37ZM84.68,104.59c.72-.37,1.13-.73,1.13-1.03,0-.15-.08-.22-.24-.29-.4.07-1.21.59-1.21.81-.73.51-1.21,1.1-1.45,1.61l1.77-1.1ZM83.55,388.11c.16,0,.24-.07.32-.15l.16-.22c0-.07-.16-.15-.4-.15-.16,0-.24.07-.24.22,0,.07,0,.15.08.22l.08.07ZM85.32,108.62c1.21-.95,1.85-1.76,1.85-2.27,0-.15-.08-.22-.24-.22-.89,0-2.09,1.32-2.5,2.2-.24.51-.32.81-.32.88s0,.15.08.15.72-.44,1.13-.73ZM84.68,247.92l.08-.29q0-.07-.08-.07c-.08,0-.48,0-.48.37h.48ZM84.27,97.63l.16-.29c.08,0,.16,0,.16.22-.08.07-.08.15-.16.15l-.16-.07ZM86.69,98.29c0-.07-.24-.22-.48-.22-.16.07-.24.15-.32.29.08.15.24.22.4.22.24,0,.4-.07.4-.29ZM86.69,386.65c0-.66-.08-.95-.16-.95-.24,0-.4.88-.64.88.24.22.4.29.64.29.08,0,.16-.07.16-.22ZM86.85,102.61c.32-.51,1.05-1.1,2.09-1.9.32-.29.48-.59.48-.81,0-.07-.08-.15-.16-.15-.24,0-.81.37-1.77,1.61-.56.73-1.05,1.39-1.05,1.46l.4-.22ZM88.78,96.53c0-.22-.08-.29-.16-.29s-.48.15-.48.22c.08.07.24.15.4.15l.24-.07ZM90.32,95.14l.32-.37c.16-.22.24-.29.24-.37l-.32-.07c-.32,0-.89.73-.89,1.03,0,.07.08.07.16.07s.24-.07.48-.29ZM89.99,105.25c-.08,0-.16-.07-.24-.15,0-.15.16-.37.4-.59l.32-.29c.16.07.24.15.24.29-.08.37-.32.66-.56.73h-.16ZM90.72,99.39c.48-.29,1.53-1.32,1.53-1.76,0-.07-.08-.15-.16-.15-.16,0-.4.15-.73.44-.72.66-1.05,1.1-1.05,1.39,0,.07.08.07.16.07h.24ZM91.93,384.96c.81-.66,1.69-1.32,2.66-1.83.4-.22,1.45-.88,3.14-1.98,2.66-1.83,6.28-3.59,8.14-5.27.97-1.17,2.82-1.68,3.46-2.64.56-.59,1.21-1.1,2.09-1.54,1.29-.51,2.5-1.46,3.87-2.12.24-.07.48-.29.72-.81.16-.22.24-.44.24-.66,0-.29-.08-.51-.32-.51-.56.66-.4.88-.64,1.39l-1.45.29c-.89.37-1.53.88-2.09,1.54-.08-.15-.24-.22-.48-.22-.56,0-1.37.44-2.34,1.32l-2.01,1.83c-.4.29-.73.59-1.05.95-1.61,1.39-2.98,2.27-4.03,2.64-1.05.22-2.17.88-3.54,2.12-1.05.73-2.09,1.46-3.14,2.12-.24.07-.81.44-1.69,1.1-1.77.95-2.66,1.54-2.66,1.9s.24.51.72.51c.16,0,.32-.07.4-.15ZM91.52,102.98c.48-.37.73-.59.73-.81-.08-.07-.24-.15-.32-.15-.24,0-.48.07-.56.15-.32.37-.48.81-.48,1.25l.64-.44ZM91.2,380.57c.08,0,.08-.07.16-.15l-.08-.22c-.08,0-.08.07-.16.22l.08.15ZM92.89,101.59c.4,0,.64-.15.64-.51,0-.07-.08-.15-.24-.15-.4,0-.81.29-.81.51,0,.07.08.15.24.15h.16ZM92.73,385.55c.24,0,1.05-.66,1.21-.88v-.07c0-.07-.08-.15-.16-.22-.4,0-1.21.37-1.21,1.03v.15h.16ZM93.05,92.5q0-.07-.08-.07l-.16.15q0,.07.08.07l.16-.15ZM94.83,95.51l-.81.22c-.64.29-.97.59-.97.88,0,.22.08.29.24.29.32,0,1.53-1.32,1.53-1.39ZM94.67,100.12c.16,0,.24-.07.24-.22,0-.29-.89-.22-.89.07.16.07.32.15.48.15h.16ZM95.23,95.43c.24,0,.4-.07.64-.29,1.05-.95,1.61-1.61,1.61-1.9,0-.15-.08-.22-.24-.22-.32,0-.64.15-.89.44-.56.59-.81.95-.89,1.17-.24,0-.48.37-.48.59l.24.22ZM97.32,98.07c.24-.29.32-.51.32-.66,0-.22-.08-.29-.32-.29-.4,0-.72.37-.97,1.03-.24.73-.56,1.1-.89,1.17.32-.37.89-.07,1.85-1.25ZM98.37,86.43c.08-.15.08-.22.16-.22s.08.07.16.15c-.08.07-.08.15-.16.15l-.16-.07ZM98.45,89.58c.16-.07.24-.15.24-.22l-.24.22ZM99.1,92.36l.64-.51.24-.37c0-.22-.24-.29-.64-.29-.48,0-.73.44-.73,1.25,0,.22.08.29.16.29s.16-.15.32-.37ZM100.31,95.36c0-.22-.08-.29-.32-.29-.16,0-.4.15-.64.37l-.32.29c-.16.22-.24.37-.24.44,0,.29.24.44.32.44,0-.22,1.21-1.03,1.21-1.25ZM100.06,85.11c0-.07.08-.07.24-.07.08,0,.08.07.08.15-.08.07-.08.15-.16.15s-.16-.07-.16-.22ZM100.71,95.14c.4,0,.56-.22.56-.59l-.08-.22c-.4,0-.56.22-.56.66v.15h.08ZM102.64,85.77c.56-.22.81-.37.81-.51,0-.07-.16-.15-.56-.15-.56,0-.81.22-.81.59,0,.15.08.29.24.51.08-.22.24-.37.32-.44ZM102.64,89.58c.08-.07.16-.07.16-.15s-.08-.15-.32-.15l-.32.15c0,.07.08.15.32.15h.16ZM102.72,237.89h.08q.08-.07.08-.15l-.16.15ZM104.25,372.51c0-.07,0-.15-.08-.15-.16,0-.24.07-.24.15s.08.22.16.22.16-.07.16-.22ZM105.22,87.6c.24,0,.32-.07.32-.15l-.32-.15c-.16,0-.32.07-.4.22,0,.07.08.07.24.07h.16ZM107.4,89.79c0-.15-.56-.22-.56.07.08.07.16.15.24.15.24,0,.32-.07.32-.22ZM108.2,85.11c.08,0,.72-.15.72-.37s-.08-.29-.24-.29c-.32,0-.48.51-.48.59v.07ZM109.33,81.67c0-.07,0-.15-.08-.15-.24,0-.4.07-.48.15.24.22.4.29.48.29s.08-.07.08-.29ZM110.13,80.86c.08,0,.08-.07.08-.15-.08-.44-.24-.66-.48-.66-.08,0-.24.07-.4.22l-.24.29.48.22.56.07ZM109.17,84.52l.56-.44c1.37-.81,1.53-.81,1.53-1.1,0-.22-.08-.37-.32-.37-.32,0-.81.44-1.37,1.39l-.4.51ZM109.97,366.8c-.08,0-.08-.07-.08-.15,0-.15.08-.29.24-.37q.08,0,.08.07c0,.22-.08.37-.16.44h-.08ZM110.54,87.96h-.4l-.08-.07c0-.07.08-.15.32-.15h.24l-.08.22ZM111.26,87.08c0-.07.48-.37.48-.44l.08.29c0,.22-.16.29-.4.29-.08-.07-.16-.07-.16-.15ZM112.31,78.22l.08-.07c0-.07-.16-.22-.48-.22-.08,0-.32,0-.32.22,0,.07.08.22.32.22.16,0,.32-.07.4-.15ZM112.39,78.96c0-.07-.08-.07-.16-.07s-.16.07-.16.15,0,.15.08.15.16-.07.24-.22ZM112.55,81.88c.72-.37,1.13-.66,1.21-.88,0-.22-.4-.29-.64-.29s-.48.29-.56.88c-.16.37-.32.59-.4.66.16-.15.08-.22.4-.37ZM112.79,85.99l-.32-.07c.32-.07.64-.22.64,0l-.32.07ZM114,85.25c-.08,0-.16,0-.24-.07.16-.22.4-.37.64-.44q.08,0,.08.07c-.08.37-.24.44-.32.44h-.16ZM114.24,76.25c-.16.07-.24.15-.24.22,0,.15.16.22.48.22l-.24-.44ZM115.45,208.08c0,.15.08.29.24.37,0-.07-.16-.37-.24-.37ZM116.18,78.96c-.08-.07-.08-.15-.16-.15s-.08.07-.16.15c.08.07.08.15.16.15s.08-.07.16-.15ZM117.39,78.44c-.08-.22-.24-.37-.48-.37-.32,0-.48.15-.48.51.16.07.32.15.4.15.32,0,.56-.22.56-.29ZM117.06,74.63c0-.15-.32-.15-.32,0,0,.07.08.15.16.15l.16-.15ZM116.9,83.06l-.16-.22v-.22l.16.44ZM118.11,77.86l1.37-.95c.89-.37,1.29-.81,1.29-1.39,0-.07-.08-.15-.24-.15-.4,0-1.13.37-2.01,1.17-.56.51-.89.88-.89,1.17,0,.07.08.15.24.15h.24ZM118.03,71.56c0-.37,1.21-1.25,1.37-1.25l.16.07c0,.15-.32.44-.97.81l-.56.37ZM120.93,366.14c.97-.37,1.61-1.17,2.09-1.46.24-.15.81-.66,1.69-1.46.56-.81,1.13-1.46,1.77-1.9.24-.15.48-.22.56-.22.24,0,.4.07.48.29,1.69-1.25,3.38-2.34,5.24-3.3l.24-.22c1.93-1.1,3.38-2.49,4.91-3.44l.16-.07c2.82-1.68,4.67-3.08,5.56-4.03.89-.81,1.77-1.39,2.66-1.61.89-.29,2.01-1.1,3.46-2.42,1.85-1.68,5.08-3.96,9.51-6.81,1.37-.88,2.74-1.83,4.03-2.78.24-.07.72-.44,1.37-.95.4-.37.64-.73.64-1.1,0-.15-.08-.22-.24-.29-.24,0-.48.07-.89.29-1.21.66-2.42,1.54-3.46,2.49l-1.13.95c-1.29,1.17-3.06,1.39-4.27,2.86-1.13.95-2.9,2.12-5.4,3.66l-1.13.66c-1.21.66-2.9,1.83-5.08,3.44-1.53,1.25-3.06,2.34-4.75,3.44-1.37.81-2.66,1.76-3.87,2.71-.89.81-1.77,1.46-2.74,2.12l-.16.07c-.48.29-.81.44-.97.44-.24,0-.4-.07-.4-.15l.24-.51c0-.29-.08-.44-.16-.44-.48.07-.81.51-.89,1.25-.24.95-.97,1.68-2.17,2.2-.73.37-1.45.88-2.01,1.39-.16.22-.32.37-.56.51-1.77,1.46-3.79,2.78-6.04,4.03-.56.29-1.05.73-1.05.81.08.07.16.15.24.15.32,0,.56-.22,2.5-.59ZM121.82,74.78c.32,0,.48-.22.48-.44,0-.07-.08-.15-.16-.22-.32.07-.64.44-.64.51s.08.15.24.15h.08ZM121.82,79.03c0-.22.81-.59,1.37-.59l.08.07c0,.07-.64.59-1.05.59l-.4-.07ZM124.15,73.17c1.21-.81,1.85-1.46,1.85-1.9l-.16-.15c-.32,0-.81.29-1.37.95l-.81.66-.48.22c-.08.07-.16.15-.16.22,0,.22.16.29.56.29l.56-.29ZM123.75,67.09c0,.07.32-.59.48-.59.08.07.08.15.08.37-.08.07-.08.15-.16.15l-.32-.07-.08.15ZM124.56,66.58l-.16-.07.16-.15.16.15-.16.07ZM126.09,222.73v-.07c0-.15-.08-.22-.32-.22l-.08.15c0,.22.08.29.16.29s.16-.07.24-.15ZM126.49,223.54c.08,0,.24-.07.32-.15,0-.07-.08-.15-.32-.15-.16,0-.24.07-.24.22l.24.07ZM126.89,70.9c.08,0,.24-.07.32-.15,0-.07-.08-.15-.16-.15l-.16.07c-.08.07-.16.07-.16.15l.16.07ZM127.05,225.59c.16-.07.24-.15.24-.29l-.08-.22.08-.15c0-.07-.08-.22-.16-.29-.08.15-.16.29-.16.51l.08.44ZM127.54,70.68c.08,0,.16-.07.32-.29,0-.07.4-.22.4-.51l-.16-.22c-.32,0-.56.66-.56.88v.15ZM128.02,359.03c.16,0,.24-.15.24-.51,0-.15-.16-.22-.4-.29-.16.15-.24.29-.24.44,0,.22.08.37.32.37h.08ZM130.03,359.77q-.08,0-.08-.07v-.15h.08c.16,0,.24.07.32.15q0,.07-.08.07h-.24ZM130.2,360.57l-.08-.22q-.08,0-.08.07l.16.15ZM130.52,68.85c.08,0,.16,0,.16-.07l-.16-.29q-.08,0-.08.07l.08.29ZM133.42,65.77c0-.07-.08-.15-.24-.15-.08,0-.16,0-.16.07s.08.15.24.15l.16-.07ZM133.34,59.99c0-.22.16-.29.4-.29l.24.15c0,.15-.16.22-.4.22-.08,0-.16,0-.24-.07ZM133.98,59.62q-.08,0-.08-.07c.64-.59.64-.51.89-.59.08,0,.16,0,.16.07v.07c0,.22-.73.51-.81.51h-.16ZM135.11,354.13c.24,0,.4-.15.4-.37,0-.07-.48-.22-.72-.22l-.16.15c0,.07.08.44.32.44h.16ZM136.64,63.5c0-.07-.08-.22-.16-.22v.07c0,.07.08.22.16.22v-.07ZM137.21,59.47c0-.15-.08-.22-.32-.22-.08,0-.08.07-.08.22,0,.07-.08.22.16.22s.24-.15.24-.22ZM138.17,62.55l-.08-.22c-.16,0-.4.51-.4.81q0,.07.08.07c.08,0,.16-.44.4-.66ZM137.77,351.64c.16,0,.64-.37.64-.51-.08-.15-.16-.22-.24-.22-.24,0-.4.15-.4.51v.22ZM138.66,58.45l-.32-.07c-.08,0-.16.15-.16.37.24-.22.4-.29.48-.29ZM139.3,350.61h-.08q0-.07-.08-.07h-.08c-.08.07-.08.15-.08.22s.08.15.16.15.16-.22.16-.29ZM142.92,348.56c.73-.29,1.53-.81,2.42-1.61.48-.44,1.05-.88,1.69-1.25.08,0,1.61-.73,1.61-1.25,0-.29-.4-.59-.64-.59-.48,0-.73.37-.73,1.03v.22h-.48c-.97,0-2.09.59-3.3,1.68l-.97.81c-1.21.66-2.01,1.17-2.42,1.61-.24.22-.4.59-.4,1.03,0,.22.08.37.24.37.4,0,1.45-1.54,2.98-2.05ZM139.78,55.22l.16-.15.16.15c-.08.07-.08.15-.16.15s-.08-.07-.16-.15ZM140.19,56.47l.24-.22c-.08.15-.08.22-.16.22h-.08ZM140.51,60.79v-.07c0-.15-.08-.22-.24-.22l.08.29h.16ZM142.2,353.1l-.16-.15c-.08,0-.08.07-.08.15s.08.07.16.07.08,0,.08-.07ZM142.12,53.76s.32-.59.73-.59c.08.07.16.07.16.15,0,.29-.64.51-.81.51l-.08-.07ZM145.18,57.57c0-.29-.24-.29-.24,0,0,.07.08.15.16.15l.08-.15ZM145.18,58.74c-.08-.07-.08-.15-.16-.15l.16.15ZM145.75,52.37v-.07c0-.29.56-.59.64-.59v.07c.08.07.08.15.08.37-.24.37-.4.51-.48.51-.16,0-.24-.07-.24-.29ZM146.07,55.08c.08,0,.24-.07.4-.15l-.08-.44c-.4,0-.56.22-.56.44l.24.15ZM149.45,52.59l-.08-.15c-.08-.07-.4-.07-.4-.29v.07c-.08.15-.16.37-.16.59v.07q0,.07.08.07c.08,0,.48-.29.56-.37ZM152.92,52.22c0-.22,0-.29-.08-.29s-.16.07-.16.15v.07c0,.07.08.15.16.15l.08-.07ZM155.41,49.95l.32-.07c0-.07-.08-.15-.24-.15s-.24.07-.24.15l.16.07ZM157.43,45.34q.08,0,.08-.07c0-.15-.08-.22-.32-.22-.08,0-.16,0-.24.07l-.16.07c.08,0,.24.15.56.15h.08ZM158.15,44.75l-.24-.22c-.08,0-.24,0-.24.29.08.15.08.22.16.22s.32-.22.32-.29ZM159.92,337.06c.24,0,.64-.37.64-.59,0-.07-.16-.15-.48-.15s-.73.15-.81.15l-.08.07.24.29c.08.15.24.22.32.22h.16ZM161.05,43.51l-.24-.07c-.08,0-.08.07-.08.15s0,.15.08.15c.16,0,.24-.07.24-.22ZM161.62,335.6c.08-.22.24-.37.32-.44-.08-.22-.08-.29-.16-.29-.56.22-.89.95-.89,1.17l.72-.44ZM162.02,39.84c0-.07.4-.44,1.29-1.03.81-.59,1.29-.88,1.53-.88v.07c0,.22-.4.59-1.21,1.25-.56.51-1.05.73-1.37.73-.16,0-.24-.07-.24-.15ZM162.99,334.94c.32,0,0-.59.89-.88.08,0,.32-.07.64-.22.08-.15.16-.37.16-.59-.08-.22-.32-.37-.56-.37-.4,0-.56.22-.56.59-.24.59-1.13.73-1.13,1.03s.16.44.4.44h.16ZM162.83,42.11c0-.15-.16-.22-.32-.22v.15q0,.07.08.07h.24ZM163.23,41.31c0-.07-.08-.22-.24-.29-.08,0-.16.07-.16.29,0,.15.08.22.24.22.08,0,.16-.15.16-.22ZM165.64,41.09c.08,0,.08-.07.08-.22,0-.07,0-.15-.08-.15s-.08,0-.16.07l-.08.07.24.22ZM166.77,39.77c.08,0,.16-.07.16-.15l-.16.15ZM167.5,37.06c.56,0,.72-.37,1.37-.66s.97-.59.97-.88v-.07c-.4,0-.32-.07-1.69,1.1-.4.37-.64.51-.89.51h.24ZM167.82,333.25c1.05-.88,2.26-1.61,3.46-2.27.56-.29.81-.59.81-.81q0-.07-.08-.07c-.97,0-2.09.51-3.38,1.61-.16.07-.32.22-.4.37-.64.29-.97.66-.97,1.1,0,.22.08.29.16.29s.24-.07.4-.22ZM168.3,38.96c0-.07-.32-.29-.32.07.08.07.08.15.16.15l.16-.22ZM171.2,34.86c.48,0,.56-.44.97-.59.72-.37,1.05-.59,1.05-.73s-.08-.22-.32-.22-1.45,1.54-1.69,1.54l-.16-.07.16.07ZM173.46,35.08c0-.07-.08-.15-.24-.15-.08,0-.08.07-.08.15s.08.22.16.22.08-.07.16-.22ZM173.78,37.72c-.08,0-.16.07-.16.15l.16-.15ZM174.27,33.03l1.13-.81c.4-.29.56-.44.56-.51v-.07c-.64,0-1.77.73-1.77,1.25l.08.15ZM174.51,327.32q-.08,0,0,0c0,.07.08.15.16.22l-.16-.22ZM178.86,325.27c-.08-.29-.24-.44-.48-.44-.81,0-1.37,1.03-1.69,1.32-.64.44-.4.73-.73,1.32.64-.59,2.74-1.1,2.9-2.2ZM176.84,31.35c-.08.07.81-.95,1.29-.95.4.22.56.37.97.59.97,0,2.5-1.03,2.5-1.9,0-.37-.24-.59-.64-.59-.56,0-1.13.22-1.69.59-.89.44-1.53.95-1.93,1.61-.16.44-.32.66-.56.73l.08-.07ZM178.13,32.23c0-.15-.08-.22-.16-.22s-.16.07-.16.22.08.22.16.22.16-.07.16-.22ZM179.42,29.74c0-.22.24-.29.64-.29q.08,0,.08.07c-.08.22-.16.29-.4.29l-.32-.07ZM182,28.12v-.15c0-.15-.08-.22-.16-.29-.24.07-.32.15-.4.22l-.08.15c0,.07.08.07.32.07h.32ZM183.85,27.47l.24-.07v-.15l-.24.22ZM184.42,28.56c.08,0,.16-.07.16-.15l-.16-.07c-.08,0-.16.07-.16.15v.07h.16ZM186.19,320c0-.22.08-.29-.48-.37l-.08.15c0,.37.16.59.4.59.08,0,.16-.15.16-.37ZM186.51,27.69v-.22q-.24-.37-.32-.37l-.08.15c.16.15.16.29.32.44h.08ZM188.77,316.85l.08-.29c0-.15-.08-.22-.32-.22-.64,0-.97.07-.97.29s.16.29.48.29l.73-.07ZM189.73,316.7c0-.15-.16-.22-.4-.29-.08.07-.16.15-.16.22.08.29.16.44.4.44.08,0,.16-.15.16-.37ZM190.38,315.23c.64,0,1.05-.44,1.05-.51-.08-.07-.24-.07-.48-.07-.56.07-.89.22-.89.44,0,.07.08.15.16.15h.16ZM192.47,315.97c.4-.44,1.21-.88,1.21-1.25,0-.22-.16-.37-.48-.37-.64,0-1.21,1.39-1.21,1.9,0,.07,0,.15.08.15s.16-.15.4-.44ZM192.31,313.92l.4-.07c0-.15.4-.29,1.13-.44.73-.15,1.05-.37,1.05-.66-.08-.29-.16-.44-.4-.44-.72,0-2.17,1.25-2.17,1.54v.07ZM197.39,310.33l.08-.15c0-.07-.08-.22-.24-.29-.24,0-.4.07-.56.15-.4.22-.64.59-.81.95-.08.07-.16.29-.16.66,0,.07.08.15.16.15-.08,0,1.21-.66,1.53-1.46ZM198.35,310.25c.08,0,.08-.07.16-.15.56-.07,1.77-.81,3.63-2.12,1.85-1.32,2.74-2.2,2.74-2.56v-.07c-.08-.15-.24-.22-.48-.22-.64,0-1.69.66-3.22,2.05-.08.07-.08.15-.16.15l-1.13.95c-1.29.88-1.93,1.46-1.93,1.76,0,.15.08.22.24.22h.16ZM199.4,18.68l.16-.15c.08-.15.16-.37.24-.59-.08-.07-.08-.15-.16-.15-.16,0-.24.29-.24.81v.07ZM202.95,308.35c.32-.22.72-.51.81-.81,0-.22-.32-.37-.4-.37-.24,0-.97.51-2.09,1.54.08-.07.16-.07.24-.07.24,0,.48.15.81.15s.32-.22.64-.44ZM203.03,302.93c0-.07,0-.15.08-.22.16,0,.24.07.24.22v.07q-.08.07-.16.07l-.16-.15ZM207.14,304.25c.89,0,1.29-.95,1.29-1.03.24-.22.32-.44.32-.59l-.08-.07c-.16,0-.97.22-2.34.73-.56.22-.81.59-.81,1.1,0,.22.08.29.24.29.32,0,.48-.44,1.37-.44ZM206.33,303.08c0-.15-.08-.22-.24-.22-.08,0-.16,0-.16.07,0,.22.08.37.32.37.08,0,.08-.07.08-.22ZM211.08,301.46c0-.22-.08-.29-.32-.29-.64,0-1.05.29-1.05.51.16.29.4.44.81.44s.56-.22.56-.66ZM211.41,302.78c.4,0,.56-.15.56-.51,0-.15-.08-.22-.32-.22-.4,0-.56.22-.56.66l.32.07ZM212.37,300.51c.24,0,.56-.07.97-.29.24-.29.4-.51.4-.59-.08-.07-.16-.15-.32-.15-.73,0-1.45.44-1.45.81,0,.15.08.22.24.22h.16ZM213.34,302.27l-.4-.15c-.24.07-.32.07-.32.15-.08,0-.16.07-.16.22,0,.22.08.37.16.37l.72-.59ZM213.02,296.48v-.07c0-.07-.16-.15.4-.37l.08.29c0,.15-.08.22-.16.22l-.32-.07ZM215.11,299.12c.4-.29.56-.51.56-.66,0-.29-1.77-.15-2.01-.44.32.22.56.22.56.29l-.16.37c.08.44.24.66.48.66.16,0,.32-.07.56-.22ZM216.8,299.85l.32-.29c.16-.15.24-.29.24-.44,0-.07-.16-.37-.4-.37-.56.07-.81.88-.81,1.25,0,.07,0,.15.08.22.08,0,.32-.15.56-.37ZM217.05,80.35c0-.15-.08-.29-.32-.37-.08,0-.16.07-.16.15s.08.22.16.44c.08,0,.16-.07.32-.22ZM217.53,297.51c.24-.07.32-.15.32-.29,0-.22-.08-.29-.32-.29-.16,0-.24.07-.32.22l-.08.15c0,.15.08.22.24.22h.16ZM219.14,296.63v-.44c-.72,0-1.13.22-1.13.59,0,.22.16.29.4.29.48,0,.72-.15.72-.44ZM219.95,295.83c.4,0,1.29-.37,1.29-.66-.08-.15-.16-.22-.4-.22-.89,0-1.37.22-1.37.66,0,.15.08.22.32.22h.16ZM221.88,294.58c.32-.37.81-.51,1.53-.51,1.53-.29,1.77-.59,1.77-1.39-.08-.37-.24-.59-.56-.81-.32,0-.48.07-.48.15v.37c-.08.37-.32.66-.72.81-.64.22-1.05.37-1.29.51,0,.07-.32.44-.32.73l.08.15ZM226.47,292.75c.24,0,.4-.15.4-.51l-.24-.22c-.32,0-.48,0-.56-.07v.37c.08.29.16.44.24.44h.16ZM227.12,72.07l.16-.15-.08-.22c0-.15-.08-.22-.16-.29-.16,0-.24.07-.24.29,0,.07.08.15.16.22l.16.15ZM228.65,290.33c0-.15-.08-.22-.24-.22-.89,0-1.05.51-1.05.73s.08.29.32.29c.4,0,.97-.51.97-.81ZM230.42,289.38c0-.07,0-.15-.24-.15-.32.07-.48.22-.48.44.08.15.16.22.24.22.24,0,.48-.44.48-.51Z"/>
</svg>